<svg width="180" height="40" viewBox="0 0 180 40" fill="none" xmlns="http://www.w3.org/2000/svg">
<path fill-rule="evenodd" clip-rule="evenodd" d="M162.66 17.9906C143.02 32.3495 114.452 39.9997 89.8128 39.9997C55.2939 39.9997 24.346 27.4062 0.777882 6.4563C-1.00758 4.80856 0.539818 2.57235 2.8014 3.86701C28.1549 18.4613 59.46 27.1708 91.8363 27.1708C113.619 27.1708 137.663 22.6984 159.803 13.4004C163.136 12.1057 165.873 15.6366 162.66 17.9906Z" fill="#FF9900"/>
<path fill-rule="evenodd" clip-rule="evenodd" d="M170.872 8.69792C168.372 5.52012 154.208 7.1679 147.899 7.99177C145.995 8.22716 145.638 6.5794 147.423 5.40244C158.731 -2.4832 177.181 -0.12928 179.323 2.46004C181.466 5.04935 178.728 23.41 168.134 32.1195C166.468 33.4141 164.92 32.708 165.635 30.9425C168.015 25.0577 173.372 11.9934 170.872 8.69792Z" fill="#FF9900"/>
</svg>
