<svg width="66" height="20" viewBox="0 0 66 20" fill="none" xmlns="http://www.w3.org/2000/svg">
<path fill-rule="evenodd" clip-rule="evenodd" d="M40.9432 15.6402C37.1221 18.4841 31.5642 19.9992 26.7706 19.9992C20.0548 19.9992 14.0337 17.505 9.44846 13.3558C9.10109 13.0294 9.40214 12.5865 9.84214 12.8429C14.7748 15.7334 20.8653 17.4584 27.1642 17.4584C31.4021 17.4584 36.08 16.5726 40.3874 14.7311C41.0358 14.4747 41.5685 15.174 40.9432 15.6402Z" fill="#FA4504"/>
<path fill-rule="evenodd" clip-rule="evenodd" d="M42.5411 13.7996C42.0548 13.1702 39.299 13.4965 38.0716 13.6597C37.7011 13.7063 37.6316 13.38 37.979 13.1469C40.179 11.5851 43.7685 12.0513 44.1853 12.5641C44.6021 13.077 44.0695 16.7134 42.0085 18.4384C41.6843 18.6948 41.3832 18.5549 41.5221 18.2053C41.9853 17.0397 43.0274 14.4523 42.5411 13.7996Z" fill="#FA4504"/>
<path opacity="0.8" fill-rule="evenodd" clip-rule="evenodd" d="M38.1411 2.19094V0.675757C38.1411 0.442653 38.3032 0.302789 38.5116 0.302789H45.2274C45.4358 0.302789 45.6211 0.465963 45.6211 0.675757V1.95783C45.6211 2.16762 45.4358 2.44735 45.1116 2.91356L41.6379 7.90199C42.9347 7.87868 44.301 8.06517 45.4589 8.71786C45.7137 8.85772 45.7832 9.09082 45.8063 9.30062V10.909C45.8063 11.1421 45.5747 11.3986 45.32 11.2587C43.2589 10.1631 40.5032 10.0466 38.2337 11.282C38.0021 11.3986 37.7474 11.1655 37.7474 10.9323V9.39386C37.7474 9.16075 37.7474 8.74117 38.0021 8.3682L42.0316 2.5639H38.5347C38.3263 2.5639 38.1411 2.40073 38.1411 2.19094ZM13.6632 11.585H11.6253C11.44 11.5617 11.2779 11.4219 11.2547 11.2354V0.699069C11.2547 0.489275 11.44 0.326101 11.6484 0.326101H13.5474C13.7558 0.326101 13.8947 0.489274 13.9179 0.675757V2.05107H13.9642C14.4505 0.722377 15.4 0.0929962 16.6505 0.0929962C17.9242 0.0929962 18.7347 0.722377 19.2905 2.05107C19.7768 0.722377 20.9116 0.0929962 22.1158 0.0929962C22.9726 0.0929962 23.899 0.442653 24.4779 1.25852C25.1263 2.14431 24.9874 3.42639 24.9874 4.5686V11.2354C24.9874 11.4452 24.8021 11.6084 24.5937 11.6084H22.5789C22.3705 11.585 22.2084 11.4219 22.2084 11.2354V5.64088C22.2084 5.19798 22.2547 4.07908 22.1621 3.65949C22 2.96018 21.56 2.75038 20.9579 2.75038C20.4716 2.75038 19.9389 3.07673 19.7305 3.61287C19.5221 4.14901 19.5453 5.03481 19.5453 5.64088V11.2354C19.5453 11.4452 19.36 11.6084 19.1516 11.6084H17.1137C16.9053 11.585 16.7432 11.4219 16.7432 11.2354V5.64088C16.7432 4.47536 16.9284 2.72707 15.4926 2.72707C14.0337 2.72707 14.08 4.40542 14.08 5.64088V11.2354C14.0568 11.4219 13.8947 11.585 13.6632 11.585ZM51.4105 0.0929962C54.4442 0.0929962 56.0884 2.70376 56.0884 6.03716C56.0884 9.254 54.2821 11.8181 51.4105 11.8181C48.4463 11.8181 46.8253 9.20738 46.8253 5.94392C46.8021 2.65715 48.4463 0.0929962 51.4105 0.0929962ZM51.4105 2.26086C49.9053 2.26086 49.8126 4.3355 49.8126 5.61757C49.8126 6.89965 49.7895 9.65028 51.3874 9.65028C52.9621 9.65028 53.0547 7.43579 53.0547 6.08378C53.0547 5.19798 53.0084 4.1257 52.7537 3.28653C52.5221 2.54059 52.0589 2.26086 51.4105 2.26086ZM60.0021 11.585H57.9642C57.7558 11.5617 57.5937 11.3986 57.5937 11.2121V0.652445C57.6168 0.465962 57.7789 0.302789 57.9874 0.302789H59.8863C60.0716 0.302789 60.2105 0.442656 60.2568 0.605829V2.21425H60.3032C60.8821 0.769 61.6695 0.0929962 63.0821 0.0929962C63.9853 0.0929962 64.8884 0.419339 65.4674 1.32845C66 2.16762 66 3.58956 66 4.61522V11.2587C65.9768 11.4452 65.8147 11.585 65.6063 11.585H63.5684C63.3832 11.5617 63.2211 11.4219 63.1979 11.2587V5.52432C63.1979 4.3588 63.3368 2.68046 61.9242 2.68046C61.4379 2.68046 60.9747 3.0068 60.7432 3.51963C60.4653 4.17233 60.4189 4.8017 60.4189 5.52432V11.2121C60.3958 11.4219 60.2105 11.585 60.0021 11.585ZM32.7916 6.54999C32.7916 7.34254 32.8147 8.01855 32.4211 8.74117C32.0968 9.32393 31.5874 9.67359 31.0084 9.67359C30.2211 9.67359 29.7579 9.06752 29.7579 8.18172C29.7579 6.43344 31.3095 6.10709 32.7916 6.10709V6.54999ZM34.8526 11.5617C34.7137 11.6783 34.5284 11.7016 34.3663 11.6084C33.6947 11.0489 33.5558 10.7692 33.1853 10.233C32.0737 11.3752 31.2632 11.7249 29.8274 11.7249C28.1137 11.7249 26.7705 10.6526 26.7705 8.53138C26.7705 6.85303 27.6737 5.73412 28.9474 5.17467C30.0589 4.68515 31.6105 4.59191 32.7916 4.45205V4.19563C32.7916 3.70612 32.8379 3.12336 32.5368 2.70377C32.2821 2.3308 31.8189 2.16762 31.4021 2.16762C30.6147 2.16762 29.92 2.56391 29.7579 3.40308C29.7116 3.58956 29.5958 3.77604 29.4105 3.77604L27.4421 3.56625C27.28 3.51963 27.0947 3.40308 27.1411 3.14666C27.6042 0.722379 29.7579 -0.000244141 31.7032 -0.000244141C32.6989 -0.000244141 33.9958 0.256169 34.7832 1.02541C35.7789 1.95783 35.6863 3.2166 35.6863 4.5686V7.76213C35.6863 8.71786 36.08 9.13745 36.4505 9.67359C36.5895 9.86007 36.6126 10.0932 36.4505 10.2097C36.0105 10.5594 35.2695 11.2121 34.8526 11.5617ZM6.04421 6.54999C6.04421 7.34254 6.06737 8.01855 5.67368 8.74117C5.34947 9.32393 4.84 9.67359 4.26105 9.67359C3.47368 9.67359 3.01053 9.06752 3.01053 8.18172C3.01053 6.43344 4.56211 6.10709 6.04421 6.10709V6.54999ZM8.0821 11.5617C7.94316 11.6783 7.7579 11.7016 7.59579 11.6084C6.92421 11.0489 6.78526 10.7692 6.41474 10.233C5.30316 11.3752 4.49263 11.7249 3.05684 11.7249C1.34316 11.7249 0 10.6526 0 8.53138C0 6.85303 0.903156 5.73412 2.17684 5.17467C3.28842 4.68515 4.84 4.59191 6.02105 4.45205V4.19563C6.02105 3.70612 6.06737 3.12336 5.76631 2.70377C5.51158 2.3308 5.04842 2.16762 4.63158 2.16762C3.84421 2.16762 3.14947 2.56391 2.98737 3.40308C2.94105 3.58956 2.82526 3.77604 2.64 3.77604L0.671578 3.56625C0.509472 3.51963 0.324212 3.40308 0.370528 3.14666C0.833686 0.722379 2.98737 -0.000244141 4.93263 -0.000244141C5.92842 -0.000244141 7.22526 0.256169 8.01263 1.02541C9.00842 1.95783 8.91579 3.2166 8.91579 4.5686V7.76213C8.91579 8.71786 9.30947 9.13745 9.68 9.67359C9.81895 9.86007 9.84211 10.0932 9.68 10.2097C9.24 10.5594 8.49895 11.2121 8.0821 11.5617Z" fill="black"/>
</svg>
