<svg width="37" height="37" viewBox="0 0 37 37" fill="none" xmlns="http://www.w3.org/2000/svg">
<path d="M28.5274 5.19516L24.6387 1.30638C24.3343 1.0017 23.9549 0.782881 23.5387 0.672116C23.1226 0.561352 22.6846 0.562575 22.269 0.67566C21.8535 0.788745 21.4753 1.00967 21.1727 1.31605C20.8701 1.62243 20.6538 2.00336 20.5459 2.42025C20.0576 2.03063 19.4388 1.84271 18.8163 1.89508C18.1939 1.94744 17.6151 2.23612 17.1989 2.70183C16.7826 3.16755 16.5604 3.77496 16.578 4.39935C16.5955 5.02374 16.8514 5.61772 17.2932 6.05934L22.4782 11.2444L11.244 22.4786L6.05891 17.2936C5.6171 16.8529 5.02345 16.5978 4.39963 16.5807C3.77581 16.5636 3.16908 16.7858 2.7038 17.2017C2.23852 17.6175 1.94993 18.1956 1.89718 18.8174C1.84443 19.4393 2.03152 20.0577 2.42009 20.546C2.00314 20.6539 1.62212 20.8701 1.31567 21.1727C1.00921 21.4754 0.788227 21.8536 0.675108 22.2692C0.56199 22.6848 0.560763 23.1229 0.671552 23.539C0.782341 23.9552 1.00121 24.3347 1.30596 24.6391L5.19474 28.5279C4.73635 28.9862 4.47884 29.6079 4.47884 30.2562C4.47884 30.9045 4.73635 31.5262 5.19474 31.9845C5.65313 32.4429 6.27483 32.7005 6.92309 32.7005C7.57134 32.7005 8.19305 32.4429 8.65144 31.9845L12.5402 35.8733C12.8446 36.1781 13.2241 36.3969 13.6402 36.5077C14.0564 36.6185 14.4945 36.6173 14.9101 36.5042C15.3257 36.3911 15.7039 36.1701 16.0066 35.8636C16.3092 35.5572 16.5254 35.1762 16.6333 34.7592C17.1216 35.1478 17.74 35.3349 18.3618 35.2821C18.9837 35.2294 19.5618 34.9408 19.9776 34.4755C20.3935 34.0102 20.6157 33.4035 20.5986 32.7797C20.5815 32.1558 20.3264 31.5622 19.8857 31.1204L14.7007 25.9353L25.9349 14.7011L31.12 19.8861C31.5616 20.3279 32.1556 20.5838 32.7799 20.6013C33.4043 20.6189 34.0117 20.3967 34.4775 19.9804C34.9432 19.5642 35.2318 18.9854 35.2842 18.3629C35.3366 17.7405 35.1487 17.1216 34.759 16.6334C35.1759 16.5255 35.5569 16.3092 35.8632 16.0066C36.1696 15.704 36.3905 15.3258 36.5036 14.9103C36.6167 14.4947 36.6179 14.0567 36.5072 13.6406C36.3964 13.2244 36.1776 12.845 35.8729 12.5406L31.9841 8.65186C32.4425 8.19347 32.7 7.57176 32.7 6.92351C32.7 6.27525 32.4425 5.65355 31.9841 5.19516C31.5257 4.73677 30.904 4.47926 30.2558 4.47926C29.6075 4.47926 28.9858 4.73677 28.5274 5.19516ZM7.78726 31.1204C7.55807 31.3496 7.24722 31.4783 6.92309 31.4783C6.59896 31.4783 6.28811 31.3496 6.05891 31.1204C5.82972 30.8912 5.70096 30.5803 5.70096 30.2562C5.70096 29.9321 5.82972 29.6212 6.05891 29.392L7.78726 31.1204ZM15.1327 35.0092C14.9034 35.238 14.5926 35.3665 14.2686 35.3665C13.9446 35.3665 13.6338 35.238 13.4044 35.0092L2.17013 23.7749C1.94094 23.5457 1.81218 23.2349 1.81218 22.9107C1.81218 22.5866 1.94094 22.2757 2.17013 22.0466C2.39933 21.8174 2.71018 21.6886 3.03431 21.6886C3.35843 21.6886 3.66929 21.8174 3.89848 22.0466L15.1327 33.2808C15.3616 33.5102 15.4901 33.821 15.4901 34.145C15.4901 34.469 15.3616 34.7798 15.1327 35.0092ZM19.0215 31.9845C19.2507 32.2137 19.3795 32.5246 19.3795 32.8487C19.3795 33.1729 19.2507 33.4837 19.0215 33.7129C18.7923 33.9421 18.4815 34.0709 18.1573 34.0709C17.8332 34.0709 17.5224 33.9421 17.2932 33.7129L3.46639 19.8861C3.2372 19.6569 3.10844 19.3461 3.10844 19.0219C3.10844 18.6978 3.2372 18.387 3.46639 18.1578C3.69559 17.9286 4.00644 17.7998 4.33057 17.7998C4.6547 17.7998 4.96555 17.9286 5.19474 18.1578L19.0215 31.9845ZM13.8365 25.0712L12.1081 23.3428L23.3424 12.1086L25.0707 13.8369L13.8365 25.0712ZM33.7125 17.2936C33.9417 17.5228 34.0704 17.8336 34.0704 18.1578C34.0704 18.4819 33.9417 18.7927 33.7125 19.0219C33.4833 19.2511 33.1724 19.3799 32.8483 19.3799C32.5242 19.3799 32.2133 19.2511 31.9841 19.0219L18.1573 5.19516C17.9282 4.96597 17.7994 4.65512 17.7994 4.33099C17.7994 4.00686 17.9282 3.69601 18.1573 3.46681C18.3865 3.23762 18.6974 3.10886 19.0215 3.10886C19.3457 3.10886 19.6565 3.23762 19.8857 3.46681L33.7125 17.2936ZM35.0087 13.4048C35.2379 13.634 35.3667 13.9449 35.3667 14.269C35.3667 14.5931 35.2379 14.904 35.0087 15.1332C34.7795 15.3624 34.4687 15.4911 34.1446 15.4911C33.8204 15.4911 33.5096 15.3624 33.2804 15.1332L22.0461 3.8989C21.8169 3.66971 21.6882 3.35886 21.6882 3.03473C21.6882 2.7106 21.8169 2.39975 22.0461 2.17055C22.2753 1.94136 22.5862 1.8126 22.9103 1.8126C23.2344 1.8126 23.5453 1.94136 23.7745 2.17055L35.0087 13.4048ZM31.12 7.78768L29.3916 6.05934C29.6208 5.83014 29.9317 5.70138 30.2558 5.70138C30.5799 5.70138 30.8908 5.83014 31.12 6.05934C31.3491 6.28853 31.4779 6.59938 31.4779 6.92351C31.4779 7.24764 31.3491 7.55849 31.12 7.78768Z" fill="black"/>
</svg>
