<svg width="32" height="32" viewBox="0 0 32 32" fill="none" xmlns="http://www.w3.org/2000/svg">
<path d="M19.6 10.6667H17.2C16.7582 10.6667 16.4 11.0646 16.4 11.5556V14.2222H19.6C19.691 14.22 19.7773 14.267 19.8314 14.3484C19.8854 14.4297 19.9006 14.5351 19.872 14.6311L19.28 16.5867C19.2254 16.7661 19.0745 16.8875 18.904 16.8889H16.4V23.5556C16.4 23.801 16.2209 24 16 24H14C13.7791 24 13.6 23.801 13.6 23.5556V16.8889H12.4C12.1791 16.8889 12 16.6899 12 16.4444V14.6667C12 14.4212 12.1791 14.2222 12.4 14.2222H13.6V11.5556C13.6 9.59188 15.0327 8 16.8 8H19.6C19.8209 8 20 8.19899 20 8.44444V10.2222C20 10.4677 19.8209 10.6667 19.6 10.6667Z" fill="#FA4504"/>
<rect width="32" height="32" rx="8" fill="#FA4504" fill-opacity="0.2"/>
</svg>
