<svg width="32" height="32" viewBox="0 0 32 32" fill="none" xmlns="http://www.w3.org/2000/svg">
<path fill-rule="evenodd" clip-rule="evenodd" d="M19.5556 8H12.4444C9.98985 8 8 9.98985 8 12.4444V19.5556C8 22.0101 9.98985 24 12.4444 24H19.5556C22.0101 24 24 22.0101 24 19.5556V12.4444C24 9.98985 22.0101 8 19.5556 8ZM22.4444 19.5556C22.4396 21.149 21.149 22.4396 19.5556 22.4444H12.4444C10.851 22.4396 9.56044 21.149 9.55556 19.5556V12.4444C9.56044 10.851 10.851 9.56044 12.4444 9.55556H19.5556C21.149 9.56044 22.4396 10.851 22.4444 12.4444V19.5556ZM20.2222 12.6667C20.7132 12.6667 21.1111 12.2687 21.1111 11.7778C21.1111 11.2869 20.7132 10.8889 20.2222 10.8889C19.7313 10.8889 19.3333 11.2869 19.3333 11.7778C19.3333 12.2687 19.7313 12.6667 20.2222 12.6667ZM16 12C13.7909 12 12 13.7909 12 16C12 18.2092 13.7909 20 16 20C18.2092 20 20 18.2092 20 16C20.0024 14.9384 19.5817 13.9196 18.831 13.169C18.0804 12.4183 17.0616 11.9976 16 12ZM13.5556 16C13.5556 17.35 14.65 18.4444 16 18.4444C17.35 18.4444 18.4444 17.35 18.4444 16C18.4444 14.65 17.35 13.5556 16 13.5556C14.65 13.5556 13.5556 14.65 13.5556 16Z" fill="#FA4504"/>
<rect width="32" height="32" rx="8" fill="#FA4504" fill-opacity="0.2"/>
</svg>
