<svg width="31" height="32" viewBox="0 0 31 32" fill="none" xmlns="http://www.w3.org/2000/svg">
<path d="M30.1853 0.147766C30.3883 0.272334 30.5311 0.457666 30.6048 0.665933C30.608 0.676743 30.6119 0.68827 30.6156 0.699884C30.6256 0.730102 30.6336 0.760364 30.6401 0.790936C30.6433 0.807063 30.6463 0.822939 30.649 0.838933C30.6529 0.86159 30.6558 0.884732 30.658 0.907971C30.6604 0.935022 30.6618 0.962093 30.6622 0.989398C30.6625 1.00548 30.6623 1.02157 30.6617 1.03767C30.6612 1.04784 30.6607 1.05817 30.66 1.06853L30.5708 2.30523C29.0097 22.2639 22.3727 30.4164 10.7484 25.8056C10.2351 25.602 9.98397 25.0207 10.1876 24.5073C10.3912 23.994 10.9725 23.7429 11.4858 23.9465C20.6065 27.5642 26.127 22.0528 28.1153 6.68066C26.3555 9.70742 24.0998 12.3337 21.3008 14.7661C22.4016 14.6301 23.2746 14.7665 23.9369 15.1869C24.4032 15.4829 24.5413 16.1008 24.2453 16.5671C23.9494 17.0334 23.3314 17.1714 22.8651 16.8755L22.7749 16.8261C21.9403 16.4339 19.7382 16.9618 16.3712 18.5704L15.9761 18.7631C13.54 20.3515 9.1296 23.0695 7.80912 23.9304L7.56408 24.093C3.96512 26.5517 2.01362 28.5516 2.01362 30.9999C2.01362 31.5522 1.56591 31.9999 1.01363 31.9999C0.461344 31.9999 0 31.5522 0 30.9999C0 27.826 2.21754 25.4008 6.03391 22.72L6.43588 22.4416C7.11966 21.9744 9.93706 20.2295 12.4101 18.6683L12.312 18.8793C13.2782 16.8627 13.4636 15.4213 13.0032 14.5233L12.9205 14.3786C12.6246 13.9123 12.7626 13.2944 13.2289 12.9984C13.6952 12.7025 14.3131 12.8406 14.6091 13.3069C15.2405 14.3017 15.3927 15.517 15.1044 16.9438C15.3346 16.7925 15.5413 16.6549 15.72 16.5336L15.9132 16.4011C20.5276 13.2019 23.9564 9.84024 26.3752 5.69335C24.3752 6.95673 21.8375 7.91106 18.5546 8.79435L17.6816 9.02339L15.3439 9.60736C5.94958 11.9385 3.53865 14.0094 5.38813 21.0399C5.52864 21.5741 5.20956 22.1209 4.67545 22.2615C4.14134 22.402 3.59446 22.0829 3.45395 21.5488C2.2334 16.909 2.98339 13.6446 5.57439 11.4189C7.44583 9.8114 9.65272 8.97824 14.3494 7.79446L16.8687 7.16672C17.0845 7.11198 17.2871 7.05998 17.4853 7.00843C23.5187 5.43924 26.8084 3.73772 28.8099 0.476888C29.0989 0.00620335 29.7146 -0.14115 30.1853 0.147766Z" fill="black"/>
</svg>
