<svg width="110" height="24" viewBox="0 0 110 24" fill="none" xmlns="http://www.w3.org/2000/svg">
<path d="M59.4144 20.3906L55.3848 24.0002V5.9978H59.4144V20.3906Z" fill="#FA4504"/>
<path d="M75.5257 5.99536L71.0305 10.025H59.4097V5.99536H75.5257Z" fill="#FA4504"/>
<path d="M65.4071 15.0363L61.3799 18.6459V0.00268555H65.4071V15.0363Z" fill="#FA4504"/>
<path d="M82.2264 0.00268555L77.7312 4.03228H65.4048V0.00268555H82.2264Z" fill="#FA4504"/>
<path d="M22.7544 4.47628V23.9979H26.7816V0.00268555L22.7544 4.47628Z" fill="black"/>
<path d="M16.1016 11.8634L13.392 14.873L10.6824 11.8634L5.4216 6.02184L0 0.00264648L1.3944 0.000244141H5.4216L13.392 8.85385L16.1016 11.8634Z" fill="black"/>
<path d="M25.392 0.000244141L26.7816 0.00264648L21.3624 6.02184L16.1016 11.8634L13.392 14.873L10.6824 11.8634L13.392 8.85385L21.3624 0.000244141H25.392Z" fill="black"/>
<path d="M2.4792 2.75695L0 0.00415039L2.4792 2.75695Z" fill="black"/>
<path d="M0 2.94507V23.9979H4.0272V7.41867L0 2.94507Z" fill="black"/>
<path d="M44.7049 11.8634L41.9953 14.873L39.2857 11.8634L34.0249 6.02184L28.6033 0.00264648L29.9977 0.000244141H34.0249L41.9953 8.85385L44.7049 11.8634Z" fill="black"/>
<path d="M53.9952 0.000244141L55.3848 0.00264648L49.9656 6.02184L44.7048 11.8634L41.9952 14.873L39.2856 11.8634L41.9952 8.85385L49.9656 0.000244141H53.9952Z" fill="black"/>
<path d="M44.0113 10.0251V17.1123L39.9817 12.6363V10.0251H44.0113Z" fill="black"/>
<path d="M39.9817 15.9124V23.998H44.0113V20.386L39.9817 15.9124Z" fill="black"/>
<path d="M44.0113 17.1147V15.9699L39.9817 11.4939V12.6387L44.0113 17.1147Z" fill="black"/>
<path d="M109.031 4.02988V0.00268555L89.8334 0.00268555V4.02988L109.031 4.02988Z" fill="black"/>
<path d="M84.0479 23.9979H88.0751V10.1667L84.0479 5.69312V23.9979Z" fill="black"/>
<path d="M88.0751 7.22429V0.00268555H84.0479V2.75068L88.0751 7.22429Z" fill="black"/>
<path d="M101.445 11.1387V0.00268555H97.4182V6.66508L101.445 11.1387Z" fill="black"/>
<path d="M97.4182 9.60986V23.9979H101.445V14.0811L97.4182 9.60986Z" fill="black"/>
</svg>
