<svg width="74" height="16" viewBox="0 0 74 16" fill="none" xmlns="http://www.w3.org/2000/svg">
<path d="M39.9607 13.5938L37.2505 16.0002V3.99878H39.9607V13.5938Z" fill="#FA4504"/>
<path d="M50.7969 3.99683L47.7735 6.68318H39.9576V3.99683H50.7969Z" fill="#FA4504"/>
<path d="M43.9911 10.0233L41.2825 12.4297V0.00109863H43.9911V10.0233Z" fill="#FA4504"/>
<path d="M55.3037 0.00109863L52.2803 2.68744H43.9899V0.00109863H55.3037Z" fill="#FA4504"/>
<path d="M15.3043 2.98344V15.9976H18.0129V0.00109863L15.3043 2.98344Z" fill="white"/>
<path d="M10.8295 7.90865L9.00713 9.91501L7.18472 7.90865L3.64643 4.01432L0 0.00160153L0.937839 0H3.64643L9.00713 5.90229L10.8295 7.90865Z" fill="white"/>
<path d="M17.078 0L18.0126 0.00160153L14.3678 4.01432L10.8295 7.90865L9.0071 9.91501L7.18469 7.90865L9.0071 5.90229L14.3678 0H17.078Z" fill="white"/>
<path d="M1.66745 1.83907L0 0.00390625L1.66745 1.83907Z" fill="white"/>
<path d="M0 1.96326V15.9982H2.7086V4.9456L0 1.96326Z" fill="white"/>
<path d="M30.0675 7.90865L28.245 9.91501L26.4226 7.90865L22.8843 4.01432L19.2379 0.00160153L20.1758 0H22.8843L28.245 5.90229L30.0675 7.90865Z" fill="white"/>
<path d="M36.3154 0L37.25 0.00160153L33.6052 4.01432L30.0669 7.90865L28.2445 9.91501L26.4221 7.90865L28.2445 5.90229L33.6052 0H36.3154Z" fill="white"/>
<path d="M29.6012 6.68262V11.4073L26.891 8.42339V6.68262H29.6012Z" fill="white"/>
<path d="M26.891 10.6075V15.9978H29.6012V13.5899L26.891 10.6075Z" fill="white"/>
<path d="M29.6012 11.4091V10.6459L26.891 7.66199V8.42517L29.6012 11.4091Z" fill="white"/>
<path d="M73.3322 2.68597V0.0012207L60.4203 0.0012207V2.68597L73.3322 2.68597Z" fill="white"/>
<path d="M56.5283 15.9978H59.2369V6.77714L56.5283 3.7948V15.9978Z" fill="white"/>
<path d="M59.2369 4.81541V0.00109863H56.5283V1.83306L59.2369 4.81541Z" fill="white"/>
<path d="M68.2297 7.42495V0.00109863H65.5211V4.44261L68.2297 7.42495Z" fill="white"/>
<path d="M65.5211 6.40588V15.9977H68.2297V9.38663L65.5211 6.40588Z" fill="white"/>
</svg>
