<svg width="32" height="32" viewBox="0 0 32 32" fill="none" xmlns="http://www.w3.org/2000/svg">
<path fill-rule="evenodd" clip-rule="evenodd" d="M8 15V2H24V15C24 19.4183 20.4183 23 16 23C11.5817 23 8 19.4183 8 15ZM6 0.490196C6 0.219468 6.21947 0 6.4902 0H25.5098C25.7805 0 26 0.219468 26 0.490196V5H31C31.5523 5 32 5.44772 32 6V10C32 14.8996 28.7966 19.0511 24.37 20.4742C22.7559 22.9371 20.084 24.6444 17 24.9506V30H20C20.5523 30 21 30.4477 21 31C21 31.5523 20.5523 32 20 32H17H15H12C11.4477 32 11 31.5523 11 31C11 30.4477 11.4477 30 12 30H15V24.9506C11.916 24.6444 9.24413 22.9371 7.63005 20.4742C3.20339 19.0511 0 14.8996 0 10V6C0 5.44772 0.447715 5 1 5H6V0.490196ZM6 7V15C6 15.9437 6.13071 16.8568 6.37502 17.7223C3.75399 16.1492 2 13.2794 2 10V7H6ZM25.625 17.7223C28.246 16.1492 30 13.2794 30 10V7H26V15C26 15.9437 25.8693 16.8568 25.625 17.7223Z" fill="black"/>
</svg>
