<svg width="32" height="32" viewBox="0 0 32 32" fill="none" xmlns="http://www.w3.org/2000/svg">
<rect width="32" height="32" rx="8" fill="#FA4504" fill-opacity="0.2"/>
<path d="M23.9766 11.029C23.5638 11.5959 23.0648 12.0904 22.4989 12.4934C22.4989 12.6415 22.4989 12.7895 22.4989 12.9459C22.5033 15.635 21.4599 18.2136 19.6023 20.1035C17.7448 21.9934 15.2285 23.0365 12.6177 22.999C11.1083 23.0042 9.61825 22.6494 8.26424 21.9624C8.19123 21.9297 8.14414 21.8553 8.14442 21.7732V21.6828C8.14442 21.5646 8.23741 21.4688 8.35211 21.4688C9.8358 21.4185 11.2666 20.889 12.442 19.9551C11.099 19.9273 9.8907 19.1083 9.33463 17.8491C9.30654 17.7802 9.31529 17.7013 9.35771 17.6409C9.40013 17.5804 9.47009 17.547 9.54232 17.5529C9.95047 17.5951 10.3627 17.556 10.7565 17.4377C9.27399 17.1209 8.16006 15.854 8.00064 14.3033C7.99497 14.2289 8.02736 14.1569 8.08609 14.1131C8.14482 14.0695 8.22142 14.0604 8.28821 14.0894C8.68605 14.2701 9.11551 14.3653 9.55031 14.3691C8.25129 13.4914 7.6902 11.822 8.18437 10.305C8.23537 10.1576 8.35793 10.0487 8.50698 10.0184C8.65604 9.98801 8.80961 10.0407 8.91127 10.157C10.6642 12.0775 13.0728 13.2219 15.6292 13.349C15.5637 13.08 15.5315 12.8036 15.5333 12.5263C15.5572 11.0723 16.4312 9.77706 17.746 9.24694C19.0608 8.71683 20.5562 9.05677 21.5323 10.1076C22.1976 9.97713 22.8408 9.74707 23.4414 9.42477C23.4854 9.39649 23.5412 9.39649 23.5852 9.42477C23.6126 9.47008 23.6126 9.52754 23.5852 9.57285C23.2943 10.2586 22.8028 10.8338 22.1793 11.2182C22.7253 11.153 23.2617 11.0205 23.7769 10.8233C23.8203 10.7929 23.8773 10.7929 23.9207 10.8233C23.957 10.8404 23.9842 10.8732 23.995 10.9128C24.0058 10.9524 23.999 10.9949 23.9766 11.029Z" fill="#FA4504"/>
</svg>
